#!OML:ASF E:\Mandelcareful walks\Project 1\Capture day 1\Session 1\Subject1.ASF
:FULLY-SPECIFIED
:DEGREES
161
root -10.9828 2.02879 1.05329 165.323 12.5242 -96.6372
lowerback 37.8445 3.83833 13.0293
upperback 13.358 3.98727 9.0854
thorax -3.01979 -0.894917 1.78204
lowerneck -15.0492 1.98276 3.61012
upperneck 48.1233 4.20883 12.7608
head 22.6752 5.94793 8.21806
rclavicle -5.24792e-014 -6.67916e-014
rhumerus 9.72383 47.8779 -63.7442
rradius 92.515
rwrist 1.96361
rhand -6.98673 -13.4243
rfingers 7.12502
rthumb 18.8836 -42.5277
lclavicle -5.24792e-014 -6.67916e-014
lhumerus 64.4553 -33.771 2.00861
lradius 40.6637
lwrist -15.1935
lhand 4.51824 2.22986
lfingers 7.12502
lthumb 29.9104 29.8333
rfemur -19.3557 -22.218 15.722
rtibia 79.5456
rfoot 15.9249 -3.2016
rtoes -5.9095
lfemur -35.2834 -19.8354 -11.0329
ltibia 30.5711
lfoot 20.3921 21.8918
ltoes 8.09418
162
root -10.9685 2.03609 1.05274 165.582 12.7726 -96.3567
lowerback 38.0484 3.88203 13.7479
upperback 13.4022 4.16176 9.30502
thorax -2.938 -0.887523 1.61744
lowerneck -15.0247 2.02289 3.8773
upperneck 48.125 4.23557 12.7708
head 22.6801 6.01422 8.1779
rclavicle -2.8625e-014 -6.36111e-014
rhumerus 10.5163 47.4262 -62.582
rradius 92.4921
rwrist 2.16354
rhand -6.73721 -13.2483
rfingers 7.12502
rthumb 19.1235 -42.3281
lclavicle -2.8625e-014 -6.36111e-014
lhumerus 63.3621 -33.6108 3.31592
lradius 41.2708
lwrist -15.9307
lhand 4.47582 2.02631
lfingers 7.12502
lthumb 29.8699 29.6371
rfemur -19.5278 -21.444 16.2707
rtibia 79.3635
rfoot 15.8664 -3.54848
rtoes -5.08289
lfemur -35.6659 -19.7276 -10.4925
ltibia 30.8015
lfoot 20.4959 21.7271
ltoes 8.08532
163
root -10.9468 2.04492 1.04815 165.742 13.2326 -95.8638
lowerback 38.3476 -2.26623 9.56612
upperback 14.6432 6.30327 8.27597
thorax -2.64114 5.46257 1.56474
lowerneck -15.1017 2.00825 4.0684
upperneck 48.1545 4.26499 12.5212
head 22.751 6.01368 8.02009
rclavicle 2.70347e-014 7.95139e-014
rhumerus 11.4686 46.9472 -61.1329
rradius 92.6275
rwrist 2.16926
rhand -6.53868 -13.8352
rfingers 7.12502
rthumb 19.3145 -42.896
lclavicle 2.70347e-014 7.95139e-014
lhumerus 62.7768 -33.1911 4.10253
lradius 41.9836
lwrist -15.6625
lhand 4.62096 2.25068
lfingers 7.12502
lthumb 30.0084 29.8364
rfemur -19.5254 -20.427 17.1462
rtibia 79.108
rfoot 15.6531 -3.96307
rtoes -4.67565
lfemur -35.9361 -19.7233 -9.66235
ltibia 31.1724
lfoot 20.6222 21.526
ltoes 7.76544
164
root -10.9301 2.06648 1.04687 165.778 13.7296 -95.791
lowerback 38.6369 -2.03609 9.55922
upperback 14.9863 6.82706 8.64014
thorax -2.40537 5.81242 1.7857
lowerneck -15.3471 1.93322 3.97798
upperneck 48.1995 4.19183 12.4376
head 22.9008 5.93312 8.01617
rclavicle 5.88403e-014 5.08889e-014
rhumerus 12.388 46.3011 -59.6226
rradius 92.7443
rwrist 2.06091
rhand -6.81022 -14.1273
rfingers 7.12502
rthumb 19.0533 -43.214
lclavicle 5.88403e-014 5.08889e-014
lhumerus 62.4928 -32.6611 5.04739
lradius 42.4928
lwrist -15.0115
lhand 4.53511 2.53028
lfingers 7.12502
lthumb 29.9265 30.1308
rfemur -19.5275 -19.2643 17.6382
rtibia 78.8917
rfoot 15.5578 -4.34442
rtoes -4.90135
lfemur -36.0493 -19.8588 -9.17125
ltibia 31.4744
lfoot 20.6467 21.5106
ltoes 7.44726
165
root -10.9212 2.06444 1.04174 165.859 13.7277 -95.9304
lowerback 38.8557 -2.10864 9.81326
upperback 15.0675 6.96163 8.7579
thorax -2.37333 5.92765 1.73806
lowerneck -15.1708 1.90343 3.88611
upperneck 48.0997 4.11253 12.6524
head 22.7368 5.92351 8.08862
rclavicle 9.54166e-015 -2.22639e-014
rhumerus 12.8325 45.8014 -58.6727
rradius 92.8718
rwrist 1.80506
rhand -6.9479 -13.8447
rfingers 7.12502
rthumb 18.9209 -42.9445
lclavicle 9.54166e-015 -2.22639e-014
lhumerus 62.1202 -32.322 5.74575
lradius 43.0201
lwrist -14.2744
lhand 4.23376 2.57445
lfingers 7.12502
lthumb 29.6388 30.2265
rfemur -19.4851 -18.7237 17.4933
rtibia 78.6458
rfoot 15.5133 -4.78477
rtoes -3.78253
lfemur -36.3605 -20.0134 -9.22303
ltibia 31.8585
lfoot 20.5745 21.3887
ltoes 7.22126
166
root -10.9185 2.08839 1.04175 165.999 13.9201 -96.6438
lowerback 39.0504 -1.77511 9.22392
upperback 15.0005 7.16431 8.75888
thorax -2.57785 5.97094 1.93214
lowerneck -14.7535 1.90541 4.28745
upperneck 48.3484 4.34448 12.3218
head 22.7927 6.06459 7.89096
rclavicle -7.15625e-014 -7.63333e-014
rhumerus 13.1003 45.6615 -58.0347
rradius 93.0863
rwrist 1.39878
rhand -6.97644 -13.7474
rfingers 7.12502
rthumb 18.8935 -42.8498
lclavicle -7.15625e-014 -7.63333e-014
lhumerus 61.5939 -32.0516 5.51062
lradius 43.906
lwrist -13.4986
lhand 4.10872 2.3383
lfingers 7.12502
lthumb 29.5195 30.0115
rfemur -19.7239 -17.8291 17.0563
rtibia 78.4018
rfoot 15.8513 -4.3755
rtoes -5.78427
lfemur -36.7282 -19.8122 -9.65936
ltibia 32.1703
lfoot 20.3416 21.5284
ltoes 7.37434
167
root -10.8947 2.09309 1.03789 166.434 14.3404 -96.0787
lowerback 39.0261 -1.89519 9.96947
upperback 15.044 7.37047 8.9034
thorax -2.454 6.13862 1.66128
lowerneck -14.3524 1.93639 4.47275
upperneck 48.4716 4.55662 12.2184
head 22.7252 6.18485 7.8215
rclavicle -1.59028e-014 -6.99722e-014
rhumerus 13.4974 45.4621 -57.3337
rradius 93.3549
rwrist 1.26173
rhand -7.27993 -14.2595
rfingers 7.12502
rthumb 18.6016 -43.3901
lclavicle -1.59028e-014 -6.99722e-014
lhumerus 60.998 -31.7108 5.16018
lradius 44.9018
lwrist -13.1972
lhand 4.0228 2.03606
lfingers 7.12502
lthumb 29.4375 29.7237
rfemur -19.9334 -16.9047 18.0257
rtibia 78.0628
rfoot 15.9186 -4.38993
rtoes -6.32521
lfemur -37.3201 -19.1834 -8.89223
ltibia 32.7362
lfoot 20.171 21.1374
ltoes 7.15825
168
root -10.8822 2.09325 1.03727 166.9 14.3149 -96.1721
lowerback 38.7712 -1.93434 10.2662
upperback 15.1728 7.41 8.85421
thorax -2.18676 6.20222 1.48418
lowerneck -14.4447 2.06734 4.44861
upperneck 48.23 4.52052 12.6774
head 22.5336 6.22543 8.01771
rclavicle -2.70347e-014 -2.54444e-014
rhumerus 14.218 44.9201 -56.6382
rradius 93.5344
rwrist 1.37791
rhand -7.67787 -14.4471
rfingers 7.12502
rthumb 18.2188 -43.6138
lclavicle -2.70347e-014 -2.54444e-014
lhumerus 60.4301 -31.158 5.36796
lradius 45.6025
lwrist -13.2527
lhand 3.75464 2.05186
lfingers 7.12502
lthumb 29.1814 29.7843
rfemur -20.392 -16.4533 18.0625
rtibia 77.8575
rfoot 15.3047 -4.50741
rtoes -5.12146
lfemur -38.1929 -19.0317 -8.80288
ltibia 33.3363
lfoot 19.9799 20.963
ltoes 7.21836
169
root -10.8635 2.13032 1.04647 167.708 15.5417 -96.3062
lowerback 38.3356 -1.09282 9.72145
upperback 15.4368 8.20132 8.98686
thorax -1.83966 6.5937 1.66293
lowerneck -14.7283 2.17198 4.48395
upperneck 48.1612 4.51941 12.9874
head 22.5822 6.26089 8.2024
rclavicle -1.54257e-013 -1.68569e-013
rhumerus 14.8846 44.3878 -56.0434
rradius 93.5958
rwrist 1.41152
rhand -8.30472 -13.9557
rfingers 7.12502
rthumb 17.6156 -43.1777
lclavicle -1.54257e-013 -1.68569e-013
lhumerus 60.0023 -30.5773 5.70227
lradius 46.1294
lwrist -13.0085
lhand 3.70244 2.21798
lfingers 7.12502
lthumb 29.1316 29.959
rfemur -21.5234 -14.5741 18.9543
rtibia 77.7162
rfoot 18.5727 0.480317
rtoes -21.9752
lfemur -39.2861 -17.9395 -8.06095
ltibia 34.3076
lfoot 19.458 21.0218
ltoes 7.31401
170
root -10.8448 2.15246 1.04383 168.299 15.9141 -96.9748
lowerback 37.7704 -0.501886 9.07406
upperback 15.5972 8.59056 9.07922
thorax -1.58109 6.75468 1.98826
lowerneck -14.8401 2.20059 4.41128
upperneck 48.2406 4.62049 13.0653
head 22.6769 6.28677 8.31452
rclavicle -1.59028e-014 5.725e-014
rhumerus 15.3749 43.9838 -55.2999
rradius 93.7134
rwrist 1.32548
rhand -8.50471 -14.2308
rfingers 7.12502
rthumb 17.4232 -43.47
lclavicle -1.59028e-014 5.725e-014
lhumerus 59.5944 -30.2054 6.17111
lradius 46.7197
lwrist -12.6171
lhand 3.7203 2.38671
lfingers 7.12502
lthumb 29.1486 30.1248
rfemur -22.4533 -13.5891 18.6754
rtibia 77.7515
rfoot 17.8004 -1.23528
rtoes -17.5162
lfemur -40.2989 -17.335 -8.31151
ltibia 34.9032
lfoot 19.2427 20.886
ltoes 6.83482
171
root -10.8089 2.11697 1.02297 168.728 15.8085 -95.7
lowerback 37.6418 -1.21634 10.9319
upperback 15.7472 8.52779 9.36355
thorax -1.16789 6.91412 1.45892
lowerneck -14.8433 2.20796 4.20775
upperneck 48.3725 4.81237 13.0558
head 22.7527 6.31155 8.4164
rclavicle -1.74931e-014 -3.18055e-015
rhumerus 15.9252 43.665 -54.3923
rradius 93.7633
rwrist 1.28159
rhand -8.56572 -14.4467
rfingers 7.12502
rthumb 17.3644 -43.6911
lclavicle -1.74931e-014 -3.18055e-015
lhumerus 58.9503 -29.9882 7.05264
lradius 47.3676
lwrist -12.6598
lhand 3.28757 2.47751
lfingers 7.12502
lthumb 28.7353 30.2865
rfemur -22.2553 -13.5085 19.7704
rtibia 77.528
rfoot 16.9099 -2.79612
rtoes -12.7601
lfemur -40.9071 -17.1348 -7.24082
ltibia 35.4903
lfoot 19.3259 20.1203
ltoes 6.17187
172
root -10.8016 2.16298 1.02203 168.613 15.5987 -97.6323
lowerback 37.3997 -0.366034 8.94058
upperback 16.0044 8.76119 9.40497
thorax -1.22975 6.90291 2.31472
lowerneck -14.8334 2.25299 4.26058
upperneck 48.5058 5.05508 12.8802
head 22.8409 6.38089 8.38442
rclavicle 3.97569e-014 4.13472e-014
rhumerus 16.3909 43.3377 -53.7438
rradius 93.6673
rwrist 1.53018
rhand -8.74371 -14.013
rfingers 7.12502
rthumb 17.1931 -43.2723
lclavicle 3.97569e-014 4.13472e-014
lhumerus 58.3526 -29.649 7.92852
lradius 47.9692
lwrist -13.1183
lhand 3.00311 2.28627
lfingers 7.12502
lthumb 28.4635 30.141
rfemur -22.7589 -13.0139 17.8436
rtibia 77.6032
rfoot 15.8522 -4.23716
rtoes -8.22153
lfemur -41.5329 -17.0702 -8.99156
ltibia 36.0484
lfoot 18.8966 20.1833
ltoes 6.69516
173
root -10.7939 2.17686 1.02316 168.47 15.3256 -98.4554
lowerback 37.753 -0.247448 8.46411
upperback 16.0615 8.82508 9.33177
thorax -1.3364 6.91953 2.42857
lowerneck -14.7683 2.30952 4.29827
upperneck 48.5631 5.23925 12.8466
head 22.8405 6.45015 8.39553
rclavicle 4.77083e-015 -1.90833e-014
rhumerus 16.8489 43.0941 -53.28
rradius 93.6207
rwrist 1.52186
rhand -8.70724 -13.9714
rfingers 7.12502
rthumb 17.2282 -43.2277
lclavicle 4.77083e-015 -1.90833e-014
lhumerus 57.9293 -29.2059 8.51909
lradius 48.5281
lwrist -13.3576
lhand 3.2526 2.10985
lfingers 7.12502
lthumb 28.7019 29.9245
rfemur -22.672 -12.7817 16.9147
rtibia 77.4095
rfoot 15.1599 -4.90282
rtoes -5.68025
lfemur -41.9926 -17.3363 -9.74321
ltibia 36.7639
lfoot 18.5743 20.1924
ltoes 6.62836
174
root -10.7548 2.14875 1.00932 169.421 15.3963 -97.2196
lowerback 37.3971 -0.714114 10.1799
upperback 16.001 8.87213 9.48909
thorax -1.0704 7.06455 1.78079
lowerneck -14.8665 2.30747 4.2959
upperneck 48.6967 5.32569 12.8317
head 22.9933 6.47118 8.45774
rclavicle -1.11319e-014 4.45278e-014
rhumerus 17.2892 42.9684 -52.8712
rradius 93.6675
rwrist 1.28839
rhand -8.82166 -14.0598
rfingers 7.12502
rthumb 17.1181 -43.3257
lclavicle -1.11319e-014 4.45278e-014
lhumerus 57.7006 -28.9204 8.70123
lradius 49.0272
lwrist -12.8649
lhand 3.17783 2.08321
lfingers 7.12502
lthumb 28.6305 29.9099
rfemur -23.2122 -12.5115 18.3309
rtibia 77.2329
rfoot 15.6318 -4.16708
rtoes -8.28493
lfemur -43.3074 -16.9436 -8.38923
ltibia 37.493
lfoot 18.9391 19.5276
ltoes 5.96902
